<svg xmlns="http://www.w3.org/2000/svg" xmlns:xlink="http://www.w3.org/1999/xlink" width="178.216" height="180.73" viewBox="0 0 178.216 180.73">
  <defs>
    <clipPath id="clip-path">
      <rect id="Rectangle_1764" data-name="Rectangle 1764" width="62.131" height="43.764" fill="none"/>
    </clipPath>
  </defs>
  <g id="Group_11445" data-name="Group 11445" transform="translate(-105.842 -102.856)">
    <g id="Group_10802" data-name="Group 10802" transform="translate(87 65.553)">
      <path id="Path_53982" data-name="Path 53982" d="M2.72,0V-23.562H18.5v4.454H8.024v4.93H17.34v4.454H8.024V0ZM29.036.34a12.656,12.656,0,0,1-3.587-.476,5.313,5.313,0,0,1-2.176-1.241,4.117,4.117,0,0,1-1.088-1.938A10.457,10.457,0,0,1,21.9-5.882V-25.568l5.066-.816V-6.9a6.675,6.675,0,0,0,.1,1.224,2.112,2.112,0,0,0,.391.918,2.075,2.075,0,0,0,.833.612,4.565,4.565,0,0,0,1.462.306ZM49.368-8.976a11.629,11.629,0,0,1-.612,3.859,8.384,8.384,0,0,1-1.768,2.992A7.957,7.957,0,0,1,44.217-.2,9.247,9.247,0,0,1,40.6.476,9.156,9.156,0,0,1,37.009-.2a7.957,7.957,0,0,1-2.771-1.921,8.8,8.8,0,0,1-1.8-2.992,11.073,11.073,0,0,1-.646-3.859,10.679,10.679,0,0,1,.663-3.842,8.713,8.713,0,0,1,1.836-2.958,8.246,8.246,0,0,1,2.788-1.9,8.976,8.976,0,0,1,3.519-.68,9.066,9.066,0,0,1,3.553.68,8.067,8.067,0,0,1,2.771,1.9,8.641,8.641,0,0,1,1.8,2.958A10.931,10.931,0,0,1,49.368-8.976Zm-5.168,0a6.369,6.369,0,0,0-.935-3.689A3.057,3.057,0,0,0,40.6-14.008a3.1,3.1,0,0,0-2.686,1.343,6.282,6.282,0,0,0-.952,3.689,6.447,6.447,0,0,0,.952,3.723A3.077,3.077,0,0,0,40.6-3.876a3.035,3.035,0,0,0,2.669-1.377A6.536,6.536,0,0,0,44.2-8.976Zm25.806,0a11.629,11.629,0,0,1-.612,3.859,8.384,8.384,0,0,1-1.768,2.992A7.957,7.957,0,0,1,64.855-.2a9.247,9.247,0,0,1-3.621.68A9.156,9.156,0,0,1,57.647-.2a7.957,7.957,0,0,1-2.771-1.921,8.8,8.8,0,0,1-1.8-2.992,11.073,11.073,0,0,1-.646-3.859,10.679,10.679,0,0,1,.663-3.842,8.713,8.713,0,0,1,1.836-2.958,8.246,8.246,0,0,1,2.788-1.9,8.976,8.976,0,0,1,3.519-.68,9.066,9.066,0,0,1,3.553.68,8.067,8.067,0,0,1,2.771,1.9,8.641,8.641,0,0,1,1.8,2.958A10.931,10.931,0,0,1,70.006-8.976Zm-5.168,0a6.369,6.369,0,0,0-.935-3.689,3.057,3.057,0,0,0-2.669-1.343,3.1,3.1,0,0,0-2.686,1.343A6.282,6.282,0,0,0,57.6-8.976a6.447,6.447,0,0,0,.952,3.723,3.077,3.077,0,0,0,2.686,1.377A3.035,3.035,0,0,0,63.9-5.253,6.536,6.536,0,0,0,64.838-8.976Zm13.4-.1A6.207,6.207,0,0,0,79.288-5.3a3.64,3.64,0,0,0,3.128,1.428q.68,0,1.258-.051t.952-.119V-13.26a4.4,4.4,0,0,0-1.241-.51,5.979,5.979,0,0,0-1.547-.2Q78.234-13.974,78.234-9.078Zm11.458,8.5q-.68.2-1.564.391T86.275.136Q85.306.272,84.3.357T82.382.442A11.245,11.245,0,0,1,78.438-.2a7.923,7.923,0,0,1-2.924-1.853,8.041,8.041,0,0,1-1.819-2.924,11.159,11.159,0,0,1-.629-3.859,13.21,13.21,0,0,1,.544-3.927,8.546,8.546,0,0,1,1.564-2.975,6.694,6.694,0,0,1,2.5-1.87,8.378,8.378,0,0,1,3.383-.646,7.957,7.957,0,0,1,1.887.2,10.213,10.213,0,0,1,1.683.578v-8.092l5.066-.816ZM8.976,15.438q.612,1.122,1.411,2.771t1.666,3.57q.867,1.921,1.717,3.927l1.6,3.774,1.6-3.774q.85-2.006,1.717-3.927t1.666-3.57q.8-1.649,1.411-2.771h4.828q.34,2.346.629,5.253t.51,6.052q.221,3.145.408,6.307T28.458,39H23.29q-.1-3.434-.272-7.48t-.51-8.16q-.612,1.428-1.36,3.162T19.669,29.99q-.731,1.734-1.411,3.315t-1.156,2.7H13.4q-.476-1.122-1.156-2.7T10.829,29.99Q10.1,28.256,9.35,26.522T7.99,23.36q-.34,4.114-.51,8.16T7.208,39H2.04q.136-2.788.323-5.95t.408-6.307q.221-3.145.51-6.052t.629-5.253Zm40.63,14.586a11.629,11.629,0,0,1-.612,3.859,8.384,8.384,0,0,1-1.768,2.992A7.957,7.957,0,0,1,44.455,38.8a9.89,9.89,0,0,1-7.208,0,7.957,7.957,0,0,1-2.771-1.921,8.8,8.8,0,0,1-1.8-2.992,11.073,11.073,0,0,1-.646-3.859,10.679,10.679,0,0,1,.663-3.842,8.713,8.713,0,0,1,1.836-2.958,8.246,8.246,0,0,1,2.788-1.9,9.533,9.533,0,0,1,7.072,0,8.067,8.067,0,0,1,2.771,1.9,8.641,8.641,0,0,1,1.8,2.958A10.931,10.931,0,0,1,49.606,30.024Zm-5.168,0a6.369,6.369,0,0,0-.935-3.689,3.057,3.057,0,0,0-2.669-1.343,3.1,3.1,0,0,0-2.686,1.343,6.282,6.282,0,0,0-.952,3.689,6.447,6.447,0,0,0,.952,3.723,3.077,3.077,0,0,0,2.686,1.377A3.035,3.035,0,0,0,43.5,33.747,6.536,6.536,0,0,0,44.438,30.024Zm9.078-8.3a28.237,28.237,0,0,1,3.332-.7,27.38,27.38,0,0,1,4.284-.323,10.435,10.435,0,0,1,3.791.595,5.694,5.694,0,0,1,2.4,1.683,6.558,6.558,0,0,1,1.258,2.584,13.748,13.748,0,0,1,.374,3.332V39H63.886V29.514a6.829,6.829,0,0,0-.646-3.468,2.635,2.635,0,0,0-2.414-1.02q-.544,0-1.156.051t-1.088.119V39H53.516ZM78.608,39H73.542V21.116h5.066Zm.476-23.052a2.78,2.78,0,0,1-.9,2.193,3.225,3.225,0,0,1-4.25,0,2.78,2.78,0,0,1-.9-2.193,2.78,2.78,0,0,1,.9-2.193,3.225,3.225,0,0,1,4.25,0A2.78,2.78,0,0,1,79.084,15.948Zm4.114.714,5.066-.816v5.27H94.35v4.216H88.264v6.29a5,5,0,0,0,.561,2.55,2.408,2.408,0,0,0,2.261.952,9.679,9.679,0,0,0,1.683-.153,8.674,8.674,0,0,0,1.581-.425l.714,3.944a14.414,14.414,0,0,1-2.04.646,11.887,11.887,0,0,1-2.754.272,9.066,9.066,0,0,1-3.434-.561,5.387,5.387,0,0,1-2.176-1.564,5.822,5.822,0,0,1-1.139-2.431A14.351,14.351,0,0,1,83.2,31.69Zm31.314,13.362a11.629,11.629,0,0,1-.612,3.859,8.384,8.384,0,0,1-1.768,2.992,7.957,7.957,0,0,1-2.771,1.921,9.89,9.89,0,0,1-7.208,0,7.957,7.957,0,0,1-2.771-1.921,8.8,8.8,0,0,1-1.8-2.992,11.073,11.073,0,0,1-.646-3.859,10.679,10.679,0,0,1,.663-3.842,8.713,8.713,0,0,1,1.836-2.958,8.246,8.246,0,0,1,2.788-1.9,9.533,9.533,0,0,1,7.072,0,8.067,8.067,0,0,1,2.771,1.9,8.641,8.641,0,0,1,1.8,2.958A10.931,10.931,0,0,1,114.512,30.024Zm-5.168,0a6.369,6.369,0,0,0-.935-3.689,3.057,3.057,0,0,0-2.669-1.343,3.1,3.1,0,0,0-2.686,1.343,6.282,6.282,0,0,0-.952,3.689,6.447,6.447,0,0,0,.952,3.723,3.077,3.077,0,0,0,2.686,1.377,3.035,3.035,0,0,0,2.669-1.377A6.536,6.536,0,0,0,109.344,30.024ZM129.2,25.6q-.68-.17-1.6-.357a9.875,9.875,0,0,0-1.972-.187,9.15,9.15,0,0,0-1.139.085,6.7,6.7,0,0,0-1,.187V39h-5.066V22.068a30.431,30.431,0,0,1,3.213-.9,18.514,18.514,0,0,1,4.131-.425q.408,0,.986.051t1.156.136q.578.085,1.156.2a5.439,5.439,0,0,1,.986.289ZM137.836,39H132.77V21.116h5.066Zm.476-23.052a2.78,2.78,0,0,1-.9,2.193,3.225,3.225,0,0,1-4.25,0,2.78,2.78,0,0,1-.9-2.193,2.78,2.78,0,0,1,.9-2.193,3.225,3.225,0,0,1,4.25,0A2.78,2.78,0,0,1,138.312,15.948Zm4.284,5.78a28.237,28.237,0,0,1,3.332-.7,27.38,27.38,0,0,1,4.284-.323A10.435,10.435,0,0,1,154,21.3a5.694,5.694,0,0,1,2.4,1.683,6.558,6.558,0,0,1,1.258,2.584,13.748,13.748,0,0,1,.374,3.332V39h-5.066V29.514a6.829,6.829,0,0,0-.646-3.468,2.635,2.635,0,0,0-2.414-1.02q-.544,0-1.156.051t-1.088.119V39H142.6ZM166.94,29.48q0,4.25,3.434,4.25a5.065,5.065,0,0,0,1.462-.2,5.554,5.554,0,0,0,1.156-.476V24.958q-.374-.068-.884-.119t-1.19-.051a3.487,3.487,0,0,0-2.992,1.326A5.489,5.489,0,0,0,166.94,29.48Zm11.118,7.276q0,4.386-2.227,6.511t-6.885,2.125a18.685,18.685,0,0,1-3.264-.289,20.34,20.34,0,0,1-3.026-.765l.884-4.25a14.038,14.038,0,0,0,5.474,1.02,4.115,4.115,0,0,0,3.077-.952,3.417,3.417,0,0,0,.9-2.448v-.646a8.155,8.155,0,0,1-1.683.561,8.951,8.951,0,0,1-1.887.187,7.242,7.242,0,0,1-5.678-2.193,8.857,8.857,0,0,1-1.972-6.137,10.052,10.052,0,0,1,.612-3.587,7.632,7.632,0,0,1,1.785-2.771,7.968,7.968,0,0,1,2.873-1.785,11.016,11.016,0,0,1,3.842-.629q.918,0,1.887.085t1.921.221q.952.136,1.819.323t1.547.391ZM9.146,73.954A7.65,7.65,0,0,0,11,73.767a3.416,3.416,0,0,0,1.173-.51,1.707,1.707,0,0,0,.612-.765,2.727,2.727,0,0,0,.17-.986,2.278,2.278,0,0,0-1.088-1.921,15.546,15.546,0,0,0-3.74-1.649Q6.97,67.528,5.814,67A8.522,8.522,0,0,1,3.74,65.675a6.343,6.343,0,0,1-1.5-1.938,6.07,6.07,0,0,1-.578-2.771,6.862,6.862,0,0,1,.612-2.941A6.279,6.279,0,0,1,4.012,55.8a7.935,7.935,0,0,1,2.72-1.411,12.209,12.209,0,0,1,3.6-.493,14.411,14.411,0,0,1,6.97,1.632l-1.53,4.182a14.491,14.491,0,0,0-2.193-.9,9.5,9.5,0,0,0-2.907-.391,5.333,5.333,0,0,0-2.737.527,1.778,1.778,0,0,0-.833,1.615,1.865,1.865,0,0,0,.306,1.088,2.974,2.974,0,0,0,.867.8,7.627,7.627,0,0,0,1.292.646q.731.289,1.615.6,1.836.68,3.2,1.343a8.535,8.535,0,0,1,2.261,1.547,5.6,5.6,0,0,1,1.343,2.074,8.333,8.333,0,0,1,.442,2.89,6.138,6.138,0,0,1-2.312,5.117q-2.312,1.819-6.97,1.819a19.311,19.311,0,0,1-2.822-.187A18.215,18.215,0,0,1,4.1,77.83a12.4,12.4,0,0,1-2.839-1.156l1.5-4.216a13.338,13.338,0,0,0,2.6,1.037A13.49,13.49,0,0,0,9.146,73.954ZM37.5,60.116q-1.53,5.168-3.2,9.69t-3.638,8.772a19.865,19.865,0,0,1-1.428,2.6,8,8,0,0,1-1.564,1.768,5.5,5.5,0,0,1-1.921,1.02,8.684,8.684,0,0,1-2.5.323,10.2,10.2,0,0,1-2.193-.221,9.732,9.732,0,0,1-1.649-.493L20.3,79.53a8.639,8.639,0,0,0,1.394.374,7.855,7.855,0,0,0,1.292.1,2.829,2.829,0,0,0,2.091-.731,5.873,5.873,0,0,0,1.241-2.023q-1.734-3.4-3.468-7.633a95.151,95.151,0,0,1-3.264-9.5h5.372q.34,1.326.8,2.873t.969,3.128q.51,1.581,1.037,3.077t1,2.72q.442-1.224.918-2.72t.935-3.077q.459-1.581.884-3.128t.765-2.873Zm7.854,14.246a5.057,5.057,0,0,0,1.972-.272,1.051,1.051,0,0,0,.578-1.054,1.291,1.291,0,0,0-.748-1.071,14.215,14.215,0,0,0-2.278-1.037,23.347,23.347,0,0,1-2.159-.918,6.346,6.346,0,0,1-1.649-1.139,4.607,4.607,0,0,1-1.054-1.581,5.853,5.853,0,0,1-.374-2.21,4.779,4.779,0,0,1,1.87-3.978,8.134,8.134,0,0,1,5.134-1.462,16.463,16.463,0,0,1,3.128.289,14.555,14.555,0,0,1,2.38.629L51.272,64.5a18.6,18.6,0,0,0-1.921-.544,10.44,10.44,0,0,0-2.329-.238q-2.38,0-2.38,1.326a1.37,1.37,0,0,0,.1.544,1.161,1.161,0,0,0,.408.459,5.685,5.685,0,0,0,.833.476q.527.255,1.343.561a20.747,20.747,0,0,1,2.754,1.207A6.471,6.471,0,0,1,51.8,69.585a4.011,4.011,0,0,1,.884,1.547,6.881,6.881,0,0,1,.255,1.972,4.547,4.547,0,0,1-1.989,4.012,9.9,9.9,0,0,1-5.627,1.36,15.882,15.882,0,0,1-6.154-1.088l.85-4.114a16.618,16.618,0,0,0,2.652.8A12.9,12.9,0,0,0,45.356,74.362Zm11.186-18.7,5.066-.816v5.27h6.086v4.216H61.608v6.29a5,5,0,0,0,.561,2.55,2.408,2.408,0,0,0,2.261.952,9.68,9.68,0,0,0,1.683-.153,8.674,8.674,0,0,0,1.581-.425l.714,3.944a14.414,14.414,0,0,1-2.04.646,11.887,11.887,0,0,1-2.754.272,9.066,9.066,0,0,1-3.434-.561A5.387,5.387,0,0,1,58,76.283a5.822,5.822,0,0,1-1.139-2.431,14.351,14.351,0,0,1-.323-3.162ZM70.278,69.194a10.937,10.937,0,0,1,.731-4.165,8.93,8.93,0,0,1,1.921-2.975,7.991,7.991,0,0,1,2.737-1.8,8.57,8.57,0,0,1,3.179-.612,7.9,7.9,0,0,1,6.018,2.329q2.21,2.329,2.21,6.851,0,.442-.034.969t-.068.935H75.48a3.367,3.367,0,0,0,1.462,2.482,5.876,5.876,0,0,0,3.468.918,14.64,14.64,0,0,0,2.737-.255,10.332,10.332,0,0,0,2.193-.629l.68,4.114a7,7,0,0,1-1.088.408,14.235,14.235,0,0,1-1.513.357q-.833.153-1.785.255a17.86,17.86,0,0,1-1.9.1,11.271,11.271,0,0,1-4.2-.714,8.179,8.179,0,0,1-2.958-1.955,7.759,7.759,0,0,1-1.734-2.941A11.65,11.65,0,0,1,70.278,69.194Zm11.9-1.938A5.229,5.229,0,0,0,81.957,66a3.141,3.141,0,0,0-.578-1.088,3.077,3.077,0,0,0-.986-.782,3.212,3.212,0,0,0-1.479-.306,3.4,3.4,0,0,0-1.462.289,3.021,3.021,0,0,0-1.02.765,3.422,3.422,0,0,0-.629,1.105,7.251,7.251,0,0,0-.323,1.275Zm18.632,1.258a6.986,6.986,0,0,0-.629-3.468,2.333,2.333,0,0,0-2.159-1.02q-.476,0-.986.051t-.986.119V78H90.984V60.728q.646-.17,1.513-.357t1.836-.34q.969-.153,1.989-.238t2.006-.085a8.431,8.431,0,0,1,3.145.493,7.1,7.1,0,0,1,1.989,1.173,9.473,9.473,0,0,1,5.1-1.666,8.933,8.933,0,0,1,3.519.6,5.3,5.3,0,0,1,2.193,1.683A6.368,6.368,0,0,1,115.4,64.57,16.676,16.676,0,0,1,115.7,67.9V78h-5.066V68.514a6.986,6.986,0,0,0-.629-3.468,2.333,2.333,0,0,0-2.159-1.02,4.564,4.564,0,0,0-1.139.2,4.443,4.443,0,0,0-1.207.51,7.721,7.721,0,0,1,.306,1.649q.068.867.068,1.853V78H100.81Z" transform="translate(19 133.743)" fill="#fff"/>
      <g id="Group_10801" data-name="Group 10801" transform="translate(18.842 37.303)">
        <g id="Group_10800" data-name="Group 10800" transform="translate(0 0)" clip-path="url(#clip-path)">
          <path id="Path_53916" data-name="Path 53916" d="M16.752,21.612a19.1,19.1,0,0,1-2-.105A20.824,20.824,0,0,1,.9,13.567,4.681,4.681,0,0,1,8.438,8.013a11.731,11.731,0,0,0,7.39,4.192c3.452.337,7.244-1.313,11.263-4.894C32.982,2.063,39.171-.39,45.54.05c9.309.632,15.219,7.425,15.467,7.713a4.682,4.682,0,0,1-7.116,6.086c-.014-.014-3.715-4.141-9.075-4.464-3.71-.227-7.584,1.432-11.5,4.915-5.451,4.859-11.015,7.312-16.567,7.312" transform="translate(0 -0.001)" fill="#53a7cd"/>
          <path id="Path_53917" data-name="Path 53917" d="M16.752,31.076a19.105,19.105,0,0,1-2-.105A20.824,20.824,0,0,1,.9,23.031a4.681,4.681,0,0,1,7.537-5.554,11.731,11.731,0,0,0,7.39,4.192c3.452.335,7.244-1.313,11.263-4.894,5.891-5.248,12.08-7.7,18.449-7.261,9.309.632,15.219,7.425,15.467,7.713a4.682,4.682,0,0,1-7.116,6.086c-.014-.014-3.715-4.141-9.075-4.464-3.71-.225-7.584,1.432-11.5,4.915-5.451,4.859-11.015,7.312-16.567,7.312" transform="translate(0 12.687)" fill="#a5d3de"/>
        </g>
      </g>
    </g>
  </g>
</svg>
